<svg xmlns="http://www.w3.org/2000/svg" width="210.93" height="35" viewBox="0 0 210.93 35"><rect class="svg__rect" x="0" y="0" width="117.55" height="35" fill="#D35B09"/><rect class="svg__rect" x="115.55" y="0" width="95.38" height="35" fill="#C1D72F"/><path class="svg__text" d="M15.70 22L14.22 22L14.22 13.47L15.70 13.47L15.70 17.02L19.51 17.02L19.51 13.47L20.99 13.47L20.99 22L19.51 22L19.51 18.21L15.70 18.21L15.70 22ZM26.51 22L24.97 22L28.19 13.47L29.52 13.47L32.75 22L31.20 22L30.51 20.01L27.20 20.01L26.51 22ZM28.85 15.28L27.62 18.82L30.09 18.82L28.85 15.28ZM36.27 19.42L36.27 19.42L37.75 19.42Q37.75 20.15 38.23 20.55Q38.72 20.95 39.61 20.95L39.61 20.95Q40.39 20.95 40.77 20.63Q41.16 20.32 41.16 19.80L41.16 19.80Q41.16 19.24 40.77 18.94Q40.37 18.63 39.34 18.32Q38.31 18.01 37.70 17.63L37.70 17.63Q36.54 16.90 36.54 15.72L36.54 15.72Q36.54 14.69 37.38 14.02Q38.22 13.35 39.56 13.35L39.56 13.35Q40.45 13.35 41.15 13.68Q41.84 14.01 42.24 14.61Q42.64 15.22 42.64 15.96L42.64 15.96L41.16 15.96Q41.16 15.29 40.75 14.91Q40.33 14.54 39.55 14.54L39.55 14.54Q38.82 14.54 38.42 14.85Q38.02 15.16 38.02 15.71L38.02 15.71Q38.02 16.18 38.45 16.50Q38.89 16.81 39.88 17.10Q40.88 17.40 41.48 17.78Q42.08 18.16 42.37 18.65Q42.65 19.13 42.65 19.79L42.65 19.79Q42.65 20.86 41.83 21.49Q41.01 22.12 39.61 22.12L39.61 22.12Q38.69 22.12 37.91 21.77Q37.13 21.43 36.70 20.83Q36.27 20.22 36.27 19.42ZM48.42 22L46.94 22L46.94 13.47L48.42 13.47L48.42 17.02L52.23 17.02L52.23 13.47L53.71 13.47L53.71 22L52.23 22L52.23 18.21L48.42 18.21L48.42 22ZM60.01 22L58.54 22L58.54 13.47L60.01 13.47L60.01 22ZM64.56 18.19L64.56 18.19L64.56 17.39Q64.56 16.19 64.98 15.27Q65.41 14.35 66.21 13.85Q67.01 13.35 68.06 13.35L68.06 13.35Q69.47 13.35 70.33 14.12Q71.19 14.89 71.33 16.29L71.33 16.29L69.86 16.29Q69.75 15.37 69.32 14.96Q68.89 14.55 68.06 14.55L68.06 14.55Q67.09 14.55 66.57 15.26Q66.06 15.96 66.04 17.33L66.04 17.33L66.04 18.09Q66.04 19.47 66.54 20.20Q67.03 20.92 67.99 20.92L67.99 20.92Q68.86 20.92 69.30 20.53Q69.74 20.14 69.86 19.22L69.86 19.22L71.33 19.22Q71.21 20.59 70.33 21.35Q69.45 22.12 67.99 22.12L67.99 22.12Q66.97 22.12 66.19 21.63Q65.42 21.15 64.99 20.26Q64.57 19.37 64.56 18.19ZM75.38 18.00L75.38 18.00L75.38 17.52Q75.38 16.28 75.82 15.32Q76.26 14.37 77.07 13.86Q77.87 13.35 78.92 13.35Q79.96 13.35 80.77 13.85Q81.57 14.35 82.01 15.29Q82.45 16.23 82.46 17.48L82.46 17.48L82.46 17.96Q82.46 19.21 82.02 20.16Q81.59 21.10 80.78 21.61Q79.98 22.12 78.93 22.12L78.93 22.12Q77.89 22.12 77.08 21.61Q76.27 21.10 75.83 20.17Q75.38 19.23 75.38 18.00ZM76.86 17.46L76.86 17.96Q76.86 19.36 77.41 20.13Q77.96 20.90 78.93 20.90L78.93 20.90Q79.91 20.90 80.44 20.15Q80.97 19.40 80.97 17.96L80.97 17.96L80.97 17.51Q80.97 16.09 80.44 15.34Q79.90 14.58 78.92 14.58L78.92 14.58Q77.96 14.58 77.41 15.33Q76.87 16.09 76.86 17.46L76.86 17.46ZM88.40 22L86.92 22L86.92 13.47L89.92 13.47Q91.40 13.47 92.20 14.13Q93.00 14.79 93.00 16.05L93.00 16.05Q93.00 16.90 92.59 17.48Q92.18 18.06 91.44 18.37L91.44 18.37L93.35 21.92L93.35 22L91.77 22L90.06 18.71L88.40 18.71L88.40 22ZM88.40 14.66L88.40 17.52L89.93 17.52Q90.68 17.52 91.10 17.15Q91.52 16.77 91.52 16.11L91.52 16.11Q91.52 15.43 91.13 15.05Q90.74 14.68 89.97 14.66L89.97 14.66L88.40 14.66ZM98.88 22L97.40 22L97.40 13.47L100.66 13.47Q102.09 13.47 102.93 14.21Q103.77 14.96 103.77 16.18L103.77 16.18Q103.77 17.44 102.95 18.13Q102.13 18.83 100.64 18.83L100.64 18.83L98.88 18.83L98.88 22ZM98.88 14.66L98.88 17.64L100.66 17.64Q101.45 17.64 101.87 17.27Q102.28 16.90 102.28 16.19L102.28 16.19Q102.28 15.50 101.86 15.09Q101.44 14.68 100.70 14.66L100.70 14.66L98.88 14.66Z" fill="#FFFFFF"/><path class="svg__text" d="M132.12 22L129.74 22L129.74 13.60L133.58 13.60Q134.72 13.60 135.56 13.98Q136.40 14.35 136.86 15.06Q137.31 15.76 137.31 16.71L137.31 16.71Q137.31 17.66 136.86 18.35Q136.40 19.05 135.56 19.42Q134.72 19.80 133.58 19.80L133.58 19.80L132.12 19.80L132.12 22ZM132.12 15.47L132.12 17.93L133.44 17.93Q134.17 17.93 134.54 17.61Q134.91 17.29 134.91 16.71L134.91 16.71Q134.91 16.12 134.54 15.80Q134.17 15.47 133.44 15.47L133.44 15.47L132.12 15.47ZM143.48 22L141.06 22L144.77 13.60L147.11 13.60L150.83 22L148.36 22L147.70 20.37L144.15 20.37L143.48 22ZM145.92 15.93L144.84 18.61L147.00 18.61L145.92 15.93ZM154.55 17.80L154.55 17.80Q154.55 16.54 155.15 15.54Q155.75 14.55 156.80 13.99Q157.85 13.43 159.17 13.43L159.17 13.43Q160.32 13.43 161.25 13.84Q162.17 14.25 162.78 15.02L162.78 15.02L161.27 16.39Q160.46 15.40 159.29 15.40L159.29 15.40Q158.61 15.40 158.07 15.70Q157.54 16 157.24 16.54Q156.95 17.09 156.95 17.80L156.95 17.80Q156.95 18.51 157.24 19.05Q157.54 19.60 158.07 19.90Q158.61 20.20 159.29 20.20L159.29 20.20Q160.46 20.20 161.27 19.22L161.27 19.22L162.78 20.58Q162.18 21.35 161.25 21.76Q160.32 22.17 159.17 22.17L159.17 22.17Q157.85 22.17 156.80 21.61Q155.75 21.05 155.15 20.05Q154.55 19.06 154.55 17.80ZM169.68 22L167.32 22L167.32 13.60L169.68 13.60L169.68 17.09L172.93 13.60L175.54 13.60L172.11 17.32L175.72 22L172.96 22L170.56 18.95L169.68 19.90L169.68 22ZM186.57 22L179.83 22L179.83 13.60L186.42 13.60L186.42 15.44L182.19 15.44L182.19 16.85L185.92 16.85L185.92 18.63L182.19 18.63L182.19 20.17L186.57 20.17L186.57 22ZM193.76 22L191.38 22L191.38 13.60L195.22 13.60Q196.36 13.60 197.20 13.98Q198.04 14.35 198.50 15.06Q198.95 15.76 198.95 16.71L198.95 16.71Q198.95 17.62 198.53 18.30Q198.10 18.98 197.31 19.36L197.31 19.36L199.12 22L196.58 22L195.05 19.77L193.76 19.77L193.76 22ZM193.76 15.47L193.76 17.93L195.08 17.93Q195.81 17.93 196.18 17.61Q196.55 17.29 196.55 16.71L196.55 16.71Q196.55 16.12 196.18 15.79Q195.81 15.47 195.08 15.47L195.08 15.47L193.76 15.47Z" fill="#FFFFFF" x="128.55"/></svg>